<?xml version="1.0" encoding="UTF-8" standalone="no"?>
<!-- Created with Inkscape (http://www.inkscape.org/) -->

<svg
   version="1.1"
   id="svg1"
   width="1024"
   height="1024"
   viewBox="0 0 1024 1024"
   xml:space="preserve"
   xmlns="http://www.w3.org/2000/svg"
   xmlns:svg="http://www.w3.org/2000/svg"><defs
     id="defs1" /><g
     id="g1"><path
       style="fill:#333332;stroke:none;stroke-width:0.975901"
       d="M 458.2584,16.245724 C 378.18268,27.147386 302.28158,53.053153 234.78793,98.135571 188.51393,129.04438 147.53502,167.47375 114.14658,211.996 -13.554887,382.28079 -18.703003,621.30498 102.09673,796.58791 c 34.2794,49.74022 77.60515,92.45306 126.83608,127.28721 48.96394,34.6452 104.76442,60.54227 162.96754,75.09819 58.74678,14.69189 119.5329,18.96569 179.55706,11.07209 73.28211,-9.6372 144.72709,-36.18845 206.88096,-76.1495 C 838.55155,895.18257 891.01959,845.24079 929.89613,784.87656 1043.3485,608.71715 1036.431,370.21358 904.61352,205.16438 874.59734,167.58103 839.81372,133.24093 799.80715,106.27148 749.36693,72.268347 694.0742,45.391456 634.8879,30.593454 591.39566,19.71937 549.77931,15.83078 505.09937,15.83078 c -15.29944,0 -31.67835,-1.649301 -46.84097,0.414944 M 763.70056,911.74959 c -15.36149,-36.9 -42.77634,-67.63766 -58.55043,-104.42626 -5.25673,-12.25991 -13.89683,-29.06056 -11.5665,-42.85051 0.76897,-4.54985 6.12944,-6.60277 9.61402,-8.87466 9.78068,-6.37688 19.71458,-12.53344 29.2756,-19.24634 27.8818,-19.57588 54.94036,-43.31912 70.0092,-74.44451 21.60842,-44.63299 13.62652,-91.6688 -2.37484,-136.6325 -8.71038,-24.47586 -20.48707,-48.58686 -25.66886,-74.17193 -2.10491,-10.39291 1.1645,-21.83054 2.6595,-32.20623 2.4856,-17.25092 4.12337,-34.35796 2.16698,-51.72516 -2.11487,-18.77482 -8.63435,-37.60152 -18.55546,-53.67705 -4.50932,-7.30661 -13.60097,-14.52865 -16.43514,-22.44677 -1.87266,-5.23201 3.66687,-11.59962 8.69232,-12.26331 6.59316,-0.87069 13.96057,4.29472 18.53966,8.46121 12.38504,11.26895 18.32721,27.64589 21.04487,43.8159 3.20392,19.06318 -0.25597,38.44564 1.56624,57.58084 2.95108,30.99105 15.07108,59.33164 28.86897,86.85923 5.00652,9.98827 10.71126,19.69107 16.44421,29.2784 2.61235,4.36865 5.65126,9.36606 11.12063,10.30843 12.95729,2.23257 25.32077,-26.58442 30.5248,-35.68305 16.73852,-29.26564 30.88342,-60.24676 40.14778,-92.7149 3.81793,-13.38014 8.09871,-28.90664 7.30456,-42.94164 -1.52702,-26.9899 -18.66115,-38.70811 -37.96715,-54.73211 -25.49427,-21.16035 -51.22079,-42.0734 -77.09242,-62.77151 -13.1427,-10.51466 -28.25663,-28.34575 -45.86512,-30.01715 -11.01476,-1.04551 -20.67668,4.6271 -30.25146,9.15022 -15.97854,7.54822 -32.00917,15.06337 -47.81682,22.96792 -6.67143,3.33599 -17.81255,11.27878 -25.3722,10.97635 -5.32328,-0.21295 -10.84261,-4.3416 -15.61365,-6.41745 -10.26238,-4.46515 -20.68225,-8.67254 -31.22732,-12.42598 -30.89435,-10.99656 -65.63708,-19.05896 -98.56121,-19.21771 -37.76856,-0.18214 -73.83659,3.67905 -110.27145,14.07969 -12.39666,3.53871 -24.31602,8.51577 -36.10659,13.66022 -4.54123,1.98143 -10.54623,6.74429 -15.61365,6.6042 -6.84123,-0.18919 -16.52003,-7.77327 -22.44463,-11.05774 -12.456,-6.90543 -25.33707,-13.21893 -38.05829,-19.62508 -7.79503,-3.9254 -15.43771,-8.81472 -24.39634,-9.42887 -18.0652,-1.23844 -33.39,14.52394 -46.84097,24.42273 -25.00976,18.40527 -49.96712,36.92239 -75.14072,55.10185 -13.68371,9.88192 -30.96998,19.34088 -41.59195,32.62039 -10.915604,13.64658 -10.289984,33.37517 -8.327935,49.77328 4.557035,38.08597 20.969625,73.43995 37.968705,107.35409 5.85658,11.6842 12.64208,23.08188 19.57728,34.15813 2.6023,4.156 6.39915,9.91767 11.89097,10.07876 5.78827,0.16969 9.98727,-4.79939 12.93386,-9.10358 6.88757,-10.06118 13.08502,-20.64524 19.12244,-31.22952 14.39677,-25.23886 26.54878,-53.89757 30.11893,-82.95544 3.10595,-25.27858 -1.37643,-52.0361 8.93785,-76.12381 5.75051,-13.4297 15.503,-27.27266 30.37569,-31.30106 6.07166,-1.64459 21.58285,-1.60826 21.59827,7.88209 0.0107,6.53546 -11.49546,16.89631 -15.06767,22.44301 -10.37127,16.10342 -17.92984,33.38972 -23.39267,51.72517 -5.07132,17.02109 -8.29505,35.91433 -8.50632,53.67704 -0.15096,12.68462 2.76479,26.55265 0.51877,39.03785 -8.95785,49.7946 -33.58186,99.51199 -28.65663,151.27171 3.99846,42.02032 20.50649,81.13448 50.57868,111.25789 12.42653,12.4476 25.3522,23.73002 40.01,33.50753 4.74704,3.16647 14.14295,6.93898 14.56627,13.37709 2.76323,42.02306 -25.61059,80.85625 -50.29334,111.2187 -6.35749,7.82038 -12.78495,15.57869 -19.1157,23.42194 -2.12102,2.62774 -4.65219,6.75949 -8.59142,5.86473 -8.65846,-1.96661 -18.49545,-12.62302 -25.36848,-17.98948 -23.5776,-18.40962 -44.64276,-39.72448 -64.45523,-62.0464 C 60.105081,716.34116 23.493686,569.79425 46.689139,430.60799 80.007126,230.68124 248.44647,69.096697 449.47572,43.435933 c 78.71801,-10.048131 159.22026,1.258169 233.229,29.413902 54.22213,20.628128 105.28523,51.579455 148.32973,90.514505 157.79582,142.73109 198.19125,382.39461 99.32326,569.78706 -28.85345,54.6882 -67.70676,104.2839 -115.91276,143.27207 -11.09868,8.97647 -22.40209,17.48956 -34.15488,25.5915 -5.24638,3.61672 -10.28657,8.25331 -16.58951,9.73462 M 331.39743,251.03386 v 1.95189 l -20.49292,15.61516 c -24.75506,-32.40359 -67.23679,-11.34355 -85.19368,16.59107 -20.29775,31.57637 -14.08566,66.48474 -19.49071,101.49844 -4.65464,30.15252 -19.10956,58.1902 -34.86267,83.93138 h -1.9517 c -16.28456,-30.91994 -32.08987,-61.51339 -40.62137,-95.64274 -3.3181,-13.27337 -7.51525,-29.25391 -4.5909,-42.94164 3.11014,-14.55711 19.33819,-22.22804 30.57447,-30.25435 26.5436,-18.96067 52.6915,-38.5027 79.04413,-57.72845 9.15487,-6.67895 24.28392,-23.04963 36.10658,-23.09211 7.52617,-0.027 16.10764,5.97898 22.44464,9.57647 12.55875,7.12965 25.78546,14.78533 39.03413,20.49488 m 523.05752,225.44362 h -1.95172 c -16.78155,-27.41704 -30.89864,-58.41645 -33.98917,-90.76301 -1.24685,-13.04893 1.11414,-26.04353 0.79591,-39.03786 -0.51301,-20.94472 -5.79902,-43.74794 -17.25749,-61.48463 -14.80975,-22.92426 -63.3166,-51.39669 -78.36191,-11.71135 L 693.4391,255.9136 v -1.9519 c 15.87988,-6.61212 31.44815,-14.99058 46.84098,-22.68771 7.31509,-3.6579 15.89685,-9.86711 24.39634,-9.45072 11.45476,0.56117 25.67812,17.37421 34.15487,24.40996 25.13633,20.86319 50.60826,41.38647 76.11658,61.79557 10.90487,8.7249 25.80059,16.84991 28.00611,31.81618 1.95103,13.23925 -2.52316,28.36269 -6.12621,40.98976 -9.8287,34.446 -28.40475,63.2248 -42.37282,95.64274 M 485.5823,226.91386 c 67.93424,-8.01642 140.71008,17.41954 198.09827,51.83656 26.64705,15.98081 52.429,34.04124 64.20678,64.0224 8.08582,20.58281 8.06425,42.7471 5.88975,64.41246 -1.99747,19.90141 -6.8661,37.81614 -1.37263,57.58084 16.36126,58.86558 55.53095,118.23785 30.3712,180.5501 -10.98782,27.21284 -32.12627,46.99423 -55.18169,64.28891 -31.38998,23.54687 -65.71778,43.4282 -98.56121,64.87186 -14.20218,9.27274 -24.18594,22.58924 -37.08244,33.39453 -18.74546,15.70599 -42.93003,26.20271 -67.33389,28.56454 -32.86509,3.18071 -65.44025,-10.13039 -88.80189,-33.03082 -10.16313,-9.96247 -17.9723,-26.63027 -30.25225,-33.78917 -13.83028,-8.0627 -30.43062,-12.15328 -44.88925,-19.14989 -43.35796,-20.98113 -83.6815,-50.05605 -105.13993,-94.41455 -29.1626,-60.28435 -3.52069,-125.09319 11.58153,-185.42982 4.53186,-18.10569 2.46012,-32.50222 2.81914,-50.74922 0.37375,-19.00164 3.01704,-38.44111 8.79546,-56.60489 C 308.08254,270.99884 398.01047,237.24755 485.5823,226.91386 M 369.45573,348.06751 c -18.4734,2.51498 -34.35825,12.15798 -42.08291,29.83939 -3.02173,6.91681 -5.58384,14.85191 -5.71879,22.446 -0.0361,2.01538 -0.39971,7.22476 2.95459,6.79624 4.11303,-0.52544 5.98188,-8.57921 7.52978,-11.6752 4.99295,-9.98702 11.85603,-18.82217 20.72782,-25.6871 8.77701,-6.79159 20.19568,-10.55183 31.22731,-11.31154 4.41281,-0.30391 13.53011,2.03707 17.2363,-0.20105 4.63209,-2.79721 -2.16053,-6.66769 -4.55088,-7.47847 -8.55707,-2.90245 -18.37523,-3.94648 -27.32322,-2.72827 m 268.35972,3.90675 c -5.88215,0.84282 -12.11551,2.05763 -17.54575,4.56724 -1.85236,0.85611 -5.66687,3.41433 -3.14147,5.7269 3.40915,3.12167 14.32534,0.7829 18.73552,1.08664 10.65993,0.73415 21.93513,4.31526 31.22731,9.5509 8.00961,4.51299 14.96716,10.26704 21.46878,16.71155 1.96009,1.94283 5.25224,6.36563 8.47178,5.79771 3.35918,-0.59257 1.5475,-5.86562 0.82966,-7.74883 -2.4327,-6.38292 -6.87166,-12.52499 -11.42256,-17.56328 -12.28999,-13.60632 -30.40974,-20.73845 -48.62327,-18.12883 M 378.2384,418.33941 c -7.02097,0.97427 -13.75162,3.0656 -19.51325,7.3181 -30.72525,22.67711 -6.49383,67.54896 28.29594,63.32726 43.91234,-5.32874 35.21806,-76.75117 -8.78269,-70.64536 m 251.77023,0.0101 c -47.18526,7.41251 -36.71991,77.51643 10.73439,70.52195 44.1722,-6.51068 33.29719,-77.43906 -10.73439,-70.52195 m -245.91432,4.83683 c 14.73461,-3.32609 20.50024,18.63961 5.85434,22.4641 -14.23887,3.71824 -20.60983,-19.13329 -5.85434,-22.4641 m 253.72192,0.003 c 14.64454,-3.20078 19.93327,19.40122 4.87849,22.32703 -14.13807,2.74766 -19.04378,-19.23098 -4.87849,-22.32703 m -272.26313,26.3506 c 14.64453,-3.20077 19.93317,19.4013 4.87848,22.32704 -14.13798,2.74765 -19.04388,-19.23097 -4.87848,-22.32704 m 253.72113,-0.049 c 14.16755,-2.71441 19.05315,19.36918 4.87927,21.8835 -15.07069,2.67343 -20.11937,-18.96359 -4.87927,-21.8835 m -118.07828,56.67947 c -21.0231,2.76064 -52.39855,1.1161 -65.38745,22.03259 -7.83493,12.61691 -2.98836,29.14843 3.78445,40.98975 14.1087,24.66708 46.25205,49.49415 76.24081,45.58708 26.24539,-3.41933 51.81479,-25.24677 64.53056,-47.53896 6.07751,-10.65459 10.63729,-25.52769 4.34772,-37.08596 -11.17519,-20.5364 -43.71092,-22.12058 -63.99901,-23.51005 -6.59013,-0.45133 -12.88663,-1.34514 -19.51708,-0.47445 m -25.37219,35.01356 c 9.05514,-1.33751 19.64764,0.58365 26.02651,7.6156 11.75181,12.95494 1.07031,30.19209 -14.31627,32.76271 -10.16527,1.69831 -22.4662,-1.51319 -28.44203,-10.42138 -8.77039,-13.07408 3.15601,-27.95165 16.73179,-29.95693 m 216.63949,18.7554 c -11.04685,2.39615 -19.66081,13.41158 -18.09769,24.86853 0.89027,6.52545 5.38974,11.15941 1.87637,17.56704 -16.29315,29.71585 -44.997,57.67531 -79.41233,63.81227 -22.63053,4.03555 -44.21026,-2.91366 -63.43048,-14.83345 -8.78668,-5.44925 -19.25671,-19.89664 -30.25146,-19.42857 -11.83066,0.50365 -21.94578,17.22656 -31.22731,23.69833 -21.33694,14.87777 -52.2836,19.07331 -76.11658,7.92052 -19.42661,-9.09082 -33.53335,-28.67647 -44.30267,-46.52991 -3.22295,-5.34304 -8.00952,-11.38558 -9.78265,-17.40132 -2.50023,-8.48294 5.24825,-16.87896 0.01,-26.51626 -6.75623,-12.42075 -23.25293,-16.21963 -34.70906,-8.0026 -11.37787,8.16092 -12.34357,25.34071 -2.83944,35.28692 4.00032,4.18638 10.14487,5.38617 13.65287,9.90707 11.21627,14.45473 18.42655,31.5712 30.42614,45.76405 5.32533,6.29863 14.37042,12.4874 18.26036,19.55735 8.40962,15.28437 12.88645,32.0339 23.16072,46.80701 32.50685,46.74077 86.15528,86.41337 145.67483,70.11981 39.58882,-10.83755 72.27797,-42.81368 91.865,-77.92739 4.17392,-7.48256 7.83318,-15.31015 10.5966,-23.42271 1.59377,-4.67898 2.29707,-11.42109 5.43268,-15.29812 5.93484,-7.33807 16.05825,-12.13239 22.8701,-18.86376 15.31485,-15.13413 24.48144,-32.66377 37.03794,-49.66783 3.7709,-5.1065 10.10038,-7.11224 13.48727,-12.7897 9.98708,-16.74132 -4.75719,-38.83973 -24.17707,-34.62728 m -80.99598,129.29448 -17.56536,31.23028 c -11.93167,-5.81291 -19.93933,-17.31506 -33.17902,-22.3835 -12.16021,-4.65516 -25.99606,-7.32031 -39.03415,-5.73893 -6.6803,0.81023 -12.63583,4.08993 -19.51707,4.25547 -8.03128,0.19312 -15.41146,-3.60209 -23.42048,-3.44447 -19.91825,0.39196 -45.0617,11.80208 -57.57536,27.31143 -8.39225,-4.26202 -16.90325,-19.41564 -19.51707,-28.30244 24.23961,3.13066 46.52801,3.17873 69.2856,-7.59373 8.3898,-3.97133 16.3677,-9.10345 23.42048,-15.14598 2.60641,-2.23306 6.01292,-7.2339 9.75854,-7.32711 3.87375,-0.0964 8.66421,5.21002 11.71024,7.2842 8.88212,6.0482 18.32302,11.31941 28.29976,15.36133 23.23048,9.41154 43.33668,6.39018 67.33389,4.49345 m -27.3239,42.94165 v 0.97594 c -20.88668,20.83131 -49.95794,41.08815 -80.99584,38.95052 -15.16457,-1.04444 -29.94475,-7.32852 -42.93756,-14.82897 -9.70769,-5.60407 -27.08131,-15.75394 -30.25146,-27.04939 14.6136,-9.99178 29.15245,-21.46332 47.81682,-22.34432 8.51052,-0.40177 16.70603,4.20401 25.3722,3.7102 7.46898,-0.42555 14.19428,-3.99874 21.46878,-4.68691 23.72387,-2.24419 43.37805,9.12226 59.52706,25.27293 m 84.89926,46.84542 c 7.9979,54.3635 53.63721,97.08212 74.16487,146.39196 -112.77569,66.51489 -252.8903,80.63022 -376.67947,39.36315 -33.56058,-11.18793 -69.75011,-25.26179 -98.56121,-46.19477 v -0.97595 c 35.89579,-41.22236 76.56429,-87.66315 79.04414,-145.41602 13.64585,3.73266 35.75058,11.09389 46.82672,19.90302 15.21414,12.10027 24.97678,30.14915 41.0001,42.19158 36.75152,27.62069 83.64655,34.70268 126.86096,18.85702 17.88993,-6.55983 34.64349,-16.611 48.79267,-29.39211 17.31945,-15.64494 35.41178,-37.35366 58.55122,-44.72788 z"
       id="path1" /><path
       style="fill:#ffffff;stroke-width:4.92308"
       d="m 739.84153,862.72325 c -28.94809,-48.15133 -43.23186,-78.43668 -43.21733,-91.63215 0.005,-4.40782 9.92906,-14.2814 22.05376,-21.94141 97.75926,-61.76069 118.03805,-124.22326 77.85649,-239.81237 -19.10154,-54.94885 -19.67296,-58.43288 -17.38304,-105.98702 2.07921,-43.1792 1.02843,-52.28371 -8.6237,-74.72078 -6.0453,-14.05265 -14.07173,-28.10668 -17.83651,-31.23116 -10.17418,-8.44383 -8.28839,-15.2208 3.73795,-13.43307 20.97432,3.11785 30.15507,24.31137 34.19017,78.92696 4.02132,54.4295 10.3778,76.97319 34.42472,122.08983 16.9628,31.82543 26.37154,38.40667 38.81201,27.1482 13.03971,-11.80078 53.373,-100.15042 62.2367,-136.3289 7.64874,-31.21932 7.59139,-33.7281 -1.1805,-51.62328 -12.77253,-26.05674 -139.7761,-129.71656 -158.9282,-129.71656 -7.40736,0 -33.24559,9.59256 -57.41829,21.31681 l -43.95037,21.3168 -21.00697,-9.23198 C 564.74476,193.20476 461.09367,190.63356 384.8019,221.44314 l -28.73656,11.60494 -35.26344,-19.22403 c -19.39489,-10.57321 -42.12164,-19.25518 -50.5039,-19.29326 -11.55843,-0.0525 -31.77815,11.91017 -83.69231,49.51529 -37.64851,27.27149 -72.39966,53.4347 -77.22478,58.14045 -22.934677,22.36735 -14.195994,80.96267 23.14166,155.17128 30.13746,59.89824 39.17402,64.65104 60.04898,31.58295 27.04079,-42.83538 36.95834,-71.49903 41.55726,-120.10855 2.45132,-25.90985 7.26745,-52.83579 10.70253,-59.83544 8.87858,-18.09191 31.83359,-34.30107 38.76301,-27.37165 3.93626,3.93626 1.88182,10.58327 -7.52783,24.35584 -18.3925,26.92047 -32.37421,75.95438 -32.37421,113.53651 0,19.31072 -6.10228,56.68045 -15.37509,94.15545 -12.40489,50.13296 -14.8137,68.14852 -12.46906,93.25671 4.38211,46.92701 23.50907,84.50161 60.74643,119.33533 17.30188,16.18501 33.59229,29.42735 36.20091,29.42735 8.94339,0 4.64642,36.92381 -7.16146,61.53846 -12.58316,26.23079 -54.24305,81.23077 -61.52847,81.23077 -2.40122,0 -17.4263,-11.04487 -33.38909,-24.54415 C 6.2599222,701.01425 -14.075933,392.55234 166.09119,197.02416 239.29539,117.57857 330.56002,67.272707 434.30839,49.180505 c 53.43268,-9.317879 92.20947,-9.270826 147.20058,0.17862 109.25844,18.774514 196.3937,63.749575 268.31503,138.491355 139.75262,145.23319 171.2785,366.57743 77.37137,543.22644 -35.63756,67.03789 -77.81435,115.60375 -142.36903,163.93546 l -17.6352,13.2034 z"
       id="path2" /><path
       style="fill:#ffffff;stroke-width:4.92308"
       d="m 480.00293,828.25925 c -9.47531,-3.17484 -31.42558,-19.69354 -48.77837,-36.70818 -17.35279,-17.01465 -33.65276,-30.93568 -36.22216,-30.93568 -2.5694,0 -18.72002,-6.70469 -35.89026,-14.89925 -39.58274,-18.89113 -82.75198,-58.16795 -99.46329,-90.49509 -17.60095,-34.04809 -17.45144,-80.43412 0.48037,-149.03629 7.58768,-29.02839 13.10155,-63.35678 13.10155,-81.56799 0,-87.28459 49.20456,-150.15451 139.97579,-178.8506 83.68779,-26.45677 157.87175,-20.14917 238.17702,20.25136 52.08235,26.20194 76.69032,46.02678 90.33822,72.77888 9.13885,17.91362 10.0446,26.01385 7.68891,68.76419 -2.59323,47.06117 -2.09733,50.11764 17.19606,105.98747 40.42127,117.05192 25.89489,152.01881 -95.75069,230.48487 -27.80161,17.93309 -59.71042,40.99712 -70.90847,51.25341 -11.19804,10.25625 -27.50884,22.34452 -36.24624,26.86282 -20.34219,10.51934 -61.55923,13.52827 -83.69844,6.11008 z m 54.32086,-33.14826 c 43.35334,-12.04406 90.95375,-57.79835 104.05235,-100.01678 3.19987,-10.31356 9.68611,-20.82212 14.41389,-23.35235 15.31118,-8.19429 68.44074,-77.89353 68.44074,-89.78557 0,-15.01705 -8.80781,-23.18706 -24.99719,-23.18706 -16.73215,0 -24.77945,9.65789 -23.37754,28.05633 2.00807,26.3536 -34.38602,64.5098 -71.00989,74.448 -23.51259,6.38034 -48.33476,-0.13592 -75.88531,-19.92122 -22.09899,-15.8703 -22.43423,-15.8209 -51.97154,7.65815 -25.64795,20.3874 -58.89335,23.32427 -82.60468,7.29721 -23.47424,-15.86681 -48.65279,-54.03482 -45.73038,-69.32241 2.74261,-14.34708 -9.55603,-28.21606 -25.02127,-28.21606 -26.14489,0 -30.12366,26.0447 -8.13549,53.25419 39.29469,48.6256 50.3401,64.33209 61.21941,87.0535 33.76196,70.51181 103.14341,111.99808 160.6069,96.03407 z m 1.21895,-183.89685 c 8.71303,-3.64762 24.14957,-15.83862 34.30341,-27.09111 14.80424,-16.40606 18.46154,-24.33492 18.46154,-40.02372 0,-30.44672 -13.99047,-37.02239 -78.76923,-37.02239 -41.61026,0 -54.81272,1.76085 -65.44728,8.72888 -28.38504,18.59859 -10.20544,70.67751 31.95723,91.54756 24.62713,12.19015 37.58879,13.03128 59.49433,3.86078 z M 406.99697,481.69852 c 12.50591,-11.31768 12.02793,-42.98132 -0.84312,-55.85237 -13.68533,-13.68532 -36.99785,-12.68047 -51.91609,2.23776 -14.76771,14.76772 -15.4158,31.58322 -1.88044,48.79063 12.09105,15.37128 40.23901,17.85639 54.63965,4.82398 z M 662.15385,480 c 21.5894,-21.5894 4.02483,-64 -26.50594,-64 -31.83854,0 -48.81529,35.7997 -29.83029,62.90459 10.22296,14.59531 42.21428,15.21736 56.33623,1.09541 z M 347.23663,380.24686 c 9.52501,-11.03639 17.9934,-15.06852 35.88202,-17.08482 30.02005,-3.3837 27.69304,-13.1124 -3.6217,-15.14148 -28.63034,-1.85515 -45.13199,7.6994 -55.29126,32.01397 -8.57515,20.52321 -4.62978,39.92389 4.89716,24.08096 3.11651,-5.18265 11.27671,-15.92352 18.13378,-23.86863 z m 354.30183,9.05492 c 0,-11.04402 -27.48686,-35.66069 -43.36429,-38.83617 -17.28343,-3.45669 -41.38211,2.23512 -44.10979,10.41818 -1.28174,3.84521 4.23835,5.88544 15.92369,5.88544 19.17295,0 41.21137,9.32534 51.58868,21.82923 7.98818,9.62518 19.96171,10.04704 19.96171,0.70332 z"
       id="path3" /><path
       style="fill:#ffffff;stroke-width:4.92308"
       d="M 452.92308,981.8147 C 398.56803,974.56016 318.94326,947.80443 284.27452,925.14495 l -11.11009,-7.26155 25.41106,-33.09555 c 29.17588,-37.99888 48.38377,-76.13314 48.45334,-96.19653 0.042,-12.10689 1.45631,-13.43581 11.12502,-10.45324 22.57875,6.96503 37.48077,17.13366 52.02993,35.50347 8.216,10.37355 26.7319,25.39374 41.14644,33.3782 22.56124,12.49706 31.34627,14.50313 63.13132,14.41611 46.09715,-0.1262 69.77118,-10.34353 112.18609,-48.41772 17.02543,-15.28305 32.78599,-27.78737 35.02347,-27.78737 2.23748,0 7.66589,9.42056 12.06313,20.93458 4.39725,11.51402 20.19241,40.86787 35.10036,65.23077 14.90795,24.3629 27.11888,46.71607 27.13539,49.6737 0.0485,8.68126 -72.81164,40.238 -117.30331,50.80572 -50.21144,11.92628 -119.65395,16.09055 -165.74359,9.93916 z"
       id="path4" /><path
       style="fill:#ffffff;stroke-width:4.92308"
       d="m 452.6691,982.03441 c -54.12721,-6.77779 -146.79759,-38.89068 -173.08571,-59.97907 -4.42254,-3.54777 0.52475,-13.21641 19.22404,-37.5701 28.96392,-37.72221 48.152,-75.87997 48.2214,-95.89392 0.042,-12.10689 1.45631,-13.43581 11.12502,-10.45324 22.70015,7.00247 38.13259,17.48976 53.04688,36.0486 8.43659,10.4982 26.81391,25.44674 40.83849,33.21896 21.79662,12.07937 30.86067,14.11663 62.42232,14.03022 46.09715,-0.1262 69.77118,-10.34353 112.18609,-48.41772 17.02543,-15.28305 32.91516,-27.78737 35.31052,-27.78737 2.39535,0 6.81351,7.44879 9.81813,16.55287 3.00461,9.10408 18.67046,38.45793 34.81299,65.23077 16.14254,26.77285 29.36372,51.09778 29.3804,54.05541 0.049,8.68116 -72.81101,40.23793 -117.303,50.80572 -49.68439,11.80109 -119.00405,16.04338 -165.99757,10.15887 z"
       id="path5" /><path
       style="fill:#ffffff;stroke-width:4.92308"
       d="M 736.88128,857.97135 C 688.66112,776.28293 687.42513,768.89408 718.67796,749.14969 815.40918,688.0385 836.56837,624.26703 797.36374,512 779.58789,461.09663 778.43456,454.27572 778.14947,398.3618 c -0.29731,-58.30851 -0.61957,-59.99367 -16.30331,-85.25019 -18.9411,-30.50211 -19.06624,-31.17529 -5.41701,-29.14632 21.01449,3.12382 30.16137,24.29718 34.09649,78.92696 3.57932,49.69032 11.28797,77.33567 33.9518,121.76047 14.48236,28.38772 23.39077,35.80754 35.32382,29.42117 12.33294,-6.60038 55.64411,-95.47632 65.60955,-134.63297 12.3484,-48.51968 7.07884,-58.76747 -57.91823,-112.63511 -76.98112,-63.79968 -89.01056,-72.34427 -101.84921,-72.34427 -6.20037,0 -31.53683,9.59888 -56.30321,21.33083 l -45.02986,21.33084 -22.00128,-9.44666 C 561.34041,192.91124 461.23566,190.57614 384.27138,221.65742 l -29.26708,11.81923 -35.33899,-19.50756 c -19.43645,-10.72915 -42.02556,-19.50755 -50.19802,-19.50755 -10.92725,0 -30.95832,11.73408 -75.70162,44.34554 -91.30351,66.54719 -93.22145,68.36801 -96.210662,91.33838 -3.673674,28.2301 9.460432,75.72835 35.732702,129.2239 32.65572,66.4935 41.2874,66.48088 75.02011,-0.10975 18.56049,-36.63964 21.79986,-47.92503 25.75441,-89.72371 2.48793,-26.29687 7.33403,-53.53948 10.76911,-60.53913 8.87858,-18.09191 31.83359,-34.30107 38.76301,-27.37165 3.93626,3.93626 1.88182,10.58327 -7.52783,24.35584 -18.3925,26.92047 -32.37421,75.95438 -32.37421,113.53651 0,19.31072 -6.10228,56.68045 -15.37509,94.15545 -18.80706,76.00654 -17.61798,109.59364 5.5457,156.64575 13.91781,28.27112 66.77945,85.37364 79.03308,85.37364 8.85728,0 4.48504,37.05073 -7.26196,61.53846 -12.62946,26.32729 -54.25325,81.23077 -61.58322,81.23077 -7.76891,0 -61.95461,-47.8079 -84.80097,-74.81964 C 47.021638,690.95198 13.814772,521.44174 68.531434,360.55396 92.606105,289.76527 124.06944,240.43378 182.25161,182.25161 240.34813,124.15509 289.59995,92.713123 360.55396,68.424805 480.11366,27.498241 607.71215,36.72905 723.69231,94.695193 828.35161,147.00324 916.03018,245.78178 952.87084,352.8875 988.57059,456.67605 990.56281,554.52529 959.01312,654.5662 928.0195,752.84392 871.71136,830.56 784.6019,895.28739 l -17.8596,13.27074 z"
       id="path6" /><path
       style="fill:#ffffff;stroke-width:4.92308"
       d="m 837.09804,440.12229 c -10.6964,-23.83475 -14.19612,-40.92348 -16.96068,-82.81714 -3.87499,-58.72081 -13.95462,-83.00156 -40.06048,-96.50143 -18.93545,-9.7919 -47.30023,-9.42826 -52.95649,0.67893 -3.63501,6.4954 -6.39823,6.89927 -15.15174,2.21453 -14.0931,-7.5424 -11.71811,-10.30281 23.23976,-27.01114 29.26957,-13.98957 29.6088,-14.02854 41.61541,-4.77991 30.27717,23.32234 114.65166,93.07161 118.19401,97.70661 8.33491,10.90584 -1.0134,55.66165 -20.3837,97.58858 -10.91427,23.62389 -20.79241,42.95253 -21.95143,42.95253 -1.15902,0 -8.17212,-13.5142 -15.58466,-30.03156 z"
       id="path7" /><path
       style="fill:#ffffff;stroke-width:0.991459"
       d="m 163.481,457.89953 c -24.24028,-45.63733 -39.25357,-89.40718 -39.39581,-114.85478 -0.0944,-16.89911 3.57789,-22.12912 26.61655,-37.90634 20.22265,-13.84877 83.15562,-60.20636 94.15839,-69.35881 11.13226,-9.26016 19.8946,-14.18894 25.22289,-14.18777 4.12516,9e-4 11.51975,3.32879 26.11038,11.75081 5.71268,3.29748 15.69122,8.72363 22.17454,12.05811 6.48331,3.33449 11.78785,6.42757 11.78785,6.87352 0,0.78951 -17.76678,14.92388 -18.75919,14.92388 -0.27398,0 -2.53745,-1.98196 -5.02992,-4.40437 -17.86699,-17.36473 -46.49866,-13.79065 -69.77439,8.70989 -11.88717,11.49128 -19.92254,26.6544 -23.95729,45.20853 -1.79531,8.2559 -2.76233,17.92173 -4.96541,49.63183 -1.84864,26.60851 -6.96179,46.23862 -18.21464,69.92852 -4.78007,10.06316 -16.59718,31.55915 -18.4296,33.52448 -0.42923,0.46036 -3.82418,-4.89352 -7.54435,-11.8975 z"
       id="path8" /><path
       style="fill:#ffffff;stroke-width:0.991459"
       d="m 381.96512,443.92094 c -6.13208,-3.80208 -7.3237,-13.40227 -2.21458,-17.84151 3.08054,-2.67664 9.80331,-3.02608 13.14794,-0.68341 2.62426,1.83811 5.17224,6.44842 5.17224,9.35867 0,3.65532 -2.99091,8.03976 -6.47849,9.49697 -4.33727,1.81222 -6.27846,1.74554 -9.62711,-0.33072 z"
       id="path9" /><path
       style="fill:#ffffff;stroke-width:0.991459"
       d="m 361.50699,468.73708 c -5.49036,-5.49036 -4.98825,-13.37022 1.09436,-17.17454 8.39798,-5.25243 19.17336,3.94449 15.34687,13.09876 -1.88174,4.50176 -3.88449,5.94163 -9.07874,6.5271 -3.90798,0.44048 -4.75155,0.15962 -7.36249,-2.45132 z"
       id="path10" /><path
       style="fill:#ffffff;stroke-width:0.991459"
       d="m 472.16944,579.77505 c -8.90181,-3.30748 -15.60265,-10.98614 -15.60265,-17.87946 0,-4.45294 4.6018,-12.60921 8.70809,-15.43428 5.55169,-3.81949 8.97328,-4.84617 16.28069,-4.88518 5.40425,-0.0289 7.71299,0.50146 12.35017,2.83682 13.39905,6.748 16.08172,19.06866 6.41991,29.48464 -6.29217,6.78333 -18.73021,9.3797 -28.15621,5.87746 z"
       id="path11" /><path
       style="fill:#ffffff;stroke-width:0.991459"
       d="m 617.50581,470.00388 c -9.1726,-4.02451 -8.77442,-16.67374 0.61341,-19.4864 10.2556,-3.07265 18.39511,9.17614 11.20927,16.86832 -3.29612,3.52837 -7.58387,4.47787 -11.82268,2.61808 z"
       id="path12" /><path
       style="fill:#ffffff;stroke-width:0.991459"
       d="m 637.22239,444.46842 c -2.05434,-0.54627 -3.97801,-2.04445 -5.20145,-4.05097 -4.7597,-7.80624 -0.43251,-16.60026 8.13733,-16.53727 2.35948,0.0173 4.97967,0.57504 5.82265,1.23932 9.99642,7.8774 3.34663,22.5678 -8.75853,19.34892 z"
       id="path13" /><path
       style="fill:#ffffff;stroke-width:0.991459"
       d="m 415.81533,715.35031 c -4.29277,-4.51263 -11.34613,-16.01353 -12.35087,-20.13876 -0.64822,-2.66149 -0.5591,-2.74411 2.17029,-2.01213 1.56546,0.41983 10.8771,0.74245 20.69254,0.71693 15.93043,-0.0414 18.85862,-0.31841 27.2765,-2.5802 16.44571,-4.41878 30.70534,-12.13817 42.56839,-23.04422 6.44493,-5.92501 8.07362,-6.43394 12.03757,-3.76144 16.27369,10.97178 21.05531,13.87947 29.05995,17.6713 13.44979,6.37123 22.34176,8.47325 38.27215,9.04737 7.36158,0.26531 18.06933,0.0416 23.79501,-0.49718 5.72567,-0.53876 10.52578,-0.8748 10.66689,-0.74676 0.44037,0.39955 -16.08434,29.2913 -16.75525,29.29482 -0.78709,0.004 -6.96617,-4.41233 -18.31121,-13.08781 -5.42582,-4.14911 -11.19397,-7.5741 -15.35055,-9.11479 -14.26726,-5.28838 -32.74421,-6.99931 -43.53242,-4.03102 -12.46795,3.43044 -14.48491,3.53731 -25.12888,1.33144 -15.9396,-3.30336 -27.38993,-1.42611 -45.76043,7.50229 -7.83849,3.80965 -12.76145,7.0026 -17.50254,11.35188 -3.62807,3.32824 -6.93178,6.05134 -7.34159,6.05134 -0.4098,0 -2.4373,-1.77887 -4.50555,-3.95306 z"
       id="path14" /><path
       style="fill:#ffffff;stroke-width:0.991459"
       d="m 496.38765,770.7392 c -15.41437,-2.56303 -42.05198,-15.62898 -55.56727,-27.25617 -4.26841,-3.67211 -10.03152,-10.79897 -10.03152,-12.40533 0,-1.24004 16.45163,-12.03853 24.56778,-16.12576 8.48191,-4.27142 18.78959,-6.87168 25.0046,-6.30776 2.45417,0.22267 8.34987,1.2171 13.10157,2.20982 l 8.63944,1.80496 11.64224,-2.75094 c 20.07537,-4.74359 34.77668,-2.4768 51.48802,7.93891 4.13225,2.57552 9.98209,6.98083 12.99965,9.78956 l 5.48647,5.10679 -6.03532,5.58764 c -27.39885,25.36651 -55.7275,36.65964 -81.29566,32.40828 z"
       id="path15" /></g></svg>
